#!OML:ASF H:\Male1\Project 1\Capture day 1\Session 1\Male1.ASF
:FULLY-SPECIFIED
:DEGREES
355
root 10.3636 15.3302 8.88994 -3.23073 -182.207 -0.776357
lowerback 7.95067 1.13467 -0.975584
upperback 3.87985 1.75506 -1.204
thorax -0.436538 1.01506 -0.835461
lowerneck -2.61252 5.88112 9.71439
upperneck -4.73264 7.31267 -8.53474
head -0.32147 3.49289 -4.4726
rclavicle -1.88348e-014 2.06736e-014
rhumerus -37.7264 -11.201 -80.984
rradius 28.541
rwrist -16.7023
rhand -27.7952 3.45879
rfingers 7.12502
rthumb -1.1881 -26.5177
lclavicle -1.88348e-014 2.06736e-014
lhumerus -36.7583 -2.35984 80.69
lradius 33.0646
lwrist 0.537826
lhand -17.9388 10.804
lfingers 7.12502
lthumb 8.32938 40.6198
rfemur -5.04574 15.0051 25.4273
rtibia 26.7344
rfoot -28.0509 -28.6632
rtoes -19.4826
lfemur -6.24775 -13.4651 -22.1783
ltibia 28.0686
lfoot -19.2006 21.2236
ltoes -17.6499
356
root 10.3609 15.3285 8.88642 -3.23601 -182.251 -0.771178
lowerback 7.91667 1.16725 -0.91493
upperback 3.89018 1.80458 -1.25138
thorax -0.403495 1.04163 -0.921049
lowerneck -2.62702 5.88467 9.91704
upperneck -4.71044 7.31319 -8.61593
head -0.299945 3.49085 -4.5406
rclavicle 2.55935e-014 -2.66371e-014
rhumerus -37.7398 -11.3127 -81.0372
rradius 28.5687
rwrist -16.7251
rhand -27.9153 3.56908
rfingers 7.12502
rthumb -1.30412 -26.4067
lclavicle 2.55935e-014 -2.66371e-014
lhumerus -36.6726 -2.70041 80.8756
lradius 33.5018
lwrist 0.807206
lhand -17.6184 10.6792
lfingers 7.12502
lthumb 8.63859 40.4825
rfemur -5.03823 15.0411 25.4236
rtibia 26.7341
rfoot -28.1318 -28.6563
rtoes -19.8062
lfemur -6.20552 -13.4603 -22.212
ltibia 28.0671
lfoot -19.0821 21.4177
ltoes -18.3604
357
root 10.3588 15.3274 8.88266 -3.18178 -182.291 -0.654913
lowerback 7.83358 1.1667 -0.798255
upperback 3.87793 1.80896 -1.24073
thorax -0.36743 1.04333 -0.973595
lowerneck -2.59482 5.93375 10.1353
upperneck -4.70462 7.37733 -8.75434
head -0.282315 3.52158 -4.63236
rclavicle -1.29707e-014 -3.18055e-015
rhumerus -37.7133 -11.2821 -81.1018
rradius 28.5407
rwrist -16.8049
rhand -27.8568 3.64952
rfingers 7.12502
rthumb -1.24763 -26.3266
lclavicle -1.29707e-014 -3.18055e-015
lhumerus -36.6642 -2.9327 81.0552
lradius 33.9955
lwrist 1.13716
lhand -17.5675 10.7063
lfingers 7.12502
lthumb 8.68769 40.5075
rfemur -5.09909 15.0412 25.5285
rtibia 26.7665
rfoot -28.2111 -28.6416
rtoes -20.003
lfemur -6.22558 -13.4333 -22.0965
ltibia 28.0466
lfoot -18.9925 21.5773
ltoes -18.8626
358
root 10.3582 15.3284 8.87855 -3.11506 -182.328 -0.760538
lowerback 7.73088 1.15173 -0.992345
upperback 3.86185 1.77384 -1.23501
thorax -0.333333 1.0217 -0.853517
lowerneck -2.62894 6.04103 10.189
upperneck -4.72829 7.49538 -9.20497
head -0.222249 3.5863 -4.31474
rclavicle 6.4605e-016 -1.51076e-014
rhumerus -37.6702 -11.0685 -81.161
rradius 28.5154
rwrist -16.9136
rhand -27.907 3.55355
rfingers 7.12502
rthumb -1.29609 -26.4223
lclavicle 6.4605e-016 -1.51076e-014
lhumerus -36.7554 -3.33664 81.389
lradius 34.601
lwrist 1.8354
lhand -18.3526 11.2965
lfingers 7.12502
lthumb 7.93 41.1277
rfemur -5.14593 15.0774 25.3919
rtibia 26.7328
rfoot -28.2088 -28.6695
rtoes -19.9855
lfemur -6.31142 -13.3582 -22.187
ltibia 28.0942
lfoot -19.0755 21.5142
ltoes -18.6479
359
root 10.3585 15.3299 8.87334 -3.06892 -182.382 -0.804812
lowerback 7.6429 1.19413 -1.04439
upperback 3.86337 1.82785 -1.26951
thorax -0.283129 1.04811 -0.861465
lowerneck -2.63066 6.05119 10.2043
upperneck -4.76869 7.50594 -9.18268
head -0.233299 3.59029 -4.31093
rclavicle -6.5102e-015 1.03368e-014
rhumerus -37.7049 -11.1245 -81.2169
rradius 28.5743
rwrist -16.9519
rhand -28.0597 3.34271
rfingers 7.12502
rthumb -1.44353 -26.6322
lclavicle -6.5102e-015 1.03368e-014
lhumerus -36.7364 -3.93123 81.7338
lradius 35.0622
lwrist 2.40513
lhand -18.8582 11.7011
lfingers 7.12502
lthumb 7.44201 41.5502
rfemur -5.12789 15.179 25.3499
rtibia 26.6455
rfoot -28.0599 -28.8199
rtoes -20.4057
lfemur -6.37416 -13.3129 -22.2267
ltibia 28.1876
lfoot -19.1693 21.4891
ltoes -18.6559
360
root 10.3572 15.3303 8.86817 -3.04885 -182.467 -0.450289
lowerback 7.62323 1.26141 -0.587716
upperback 3.87285 1.94652 -1.25509
thorax -0.24825 1.11246 -1.11075
lowerneck -2.63863 5.98509 10.2422
upperneck -4.87282 7.40889 -9.10609
head -0.273999 3.53824 -4.29877
rclavicle -1.35174e-014 1.66979e-014
rhumerus -37.7947 -11.5068 -81.223
rradius 28.6797
rwrist -16.8234
rhand -28.0005 3.18857
rfingers 7.12502
rthumb -1.38641 -26.7867
lclavicle -1.35174e-014 1.66979e-014
lhumerus -36.5901 -4.35279 81.9405
lradius 35.3341
lwrist 2.52188
lhand -18.4332 11.2973
lfingers 7.12502
lthumb 7.85225 41.1315
rfemur -5.08311 15.2514 25.7445
rtibia 26.5969
rfoot -28.0219 -28.7966
rtoes -20.2839
lfemur -6.36659 -13.3349 -21.8594
ltibia 28.2383
lfoot -19.2446 21.5493
ltoes -18.651
361
root 10.3534 15.3307 8.86241 -3.04649 -182.506 -0.264403
lowerback 7.62931 1.27205 -0.340119
upperback 3.86803 1.97458 -1.21434
thorax -0.249894 1.12818 -1.20996
lowerneck -2.56048 5.95204 10.2346
upperneck -5.00243 7.36165 -9.1377
head -0.327923 3.51435 -4.31363
rclavicle 6.95746e-016 -1.47101e-014
rhumerus -37.8326 -11.8214 -81.0997
rradius 28.6769
rwrist -16.536
rhand -27.8243 3.12534
rfingers 7.12502
rthumb -1.21625 -26.8509
lclavicle 6.95746e-016 -1.47101e-014
lhumerus -36.5477 -4.55486 82.1641
lradius 35.6378
lwrist 2.56408
lhand -18.0632 10.8926
lfingers 7.12502
lthumb 8.2093 40.7131
rfemur -5.04383 15.1745 25.9106
rtibia 26.5684
rfoot -28.1924 -28.4924
rtoes -19.5433
lfemur -6.34541 -13.3906 -21.6826
ltibia 28.2642
lfoot -19.3735 21.5266
ltoes -18.098
362
root 10.3518 15.3309 8.85705 -3.07381 -182.503 -0.540806
lowerback 7.65874 1.27002 -0.638997
upperback 3.85254 1.9521 -1.23859
thorax -0.290892 1.11361 -1.06699
lowerneck -2.47334 5.95841 10.1751
upperneck -5.04693 7.3748 -9.21905
head -0.35214 3.52412 -4.33195
rclavicle -1.15295e-014 2.74323e-014
rhumerus -37.834 -11.8932 -80.9486
rradius 28.5919
rwrist -16.346
rhand -27.7888 3.15277
rfingers 7.12502
rthumb -1.18192 -26.8237
lclavicle -1.15295e-014 2.74323e-014
lhumerus -36.6397 -4.8213 82.4937
lradius 36.0032
lwrist 2.69409
lhand -18.4623 11.0559
lfingers 7.12502
lthumb 7.82416 40.8911
rfemur -4.98749 15.1472 25.6089
rtibia 26.525
rfoot -28.1377 -28.4685
rtoes -19.6808
lfemur -6.32753 -13.3765 -21.9987
ltibia 28.2996
lfoot -19.3713 21.5381
ltoes -18.1985
363
root 10.3518 15.3304 8.85435 -3.11419 -182.619 -0.640242
lowerback 7.77994 1.30175 -0.766954
upperback 3.82318 1.9832 -1.23337
thorax -0.391774 1.12736 -0.99681
lowerneck -2.50325 6.01612 10.1524
upperneck -4.95202 7.455 -9.29884
head -0.308924 3.56616 -4.34707
rclavicle -1.84373e-014 3.57812e-015
rhumerus -37.8623 -11.7641 -80.8992
rradius 28.5671
rwrist -16.4369
rhand -27.84 3.16902
rfingers 7.12502
rthumb -1.23137 -26.8072
lclavicle -1.84373e-014 3.57812e-015
lhumerus -36.7018 -5.00047 82.7745
lradius 36.3238
lwrist 2.76374
lhand -19.0881 11.3367
lfingers 7.12502
lthumb 7.22009 41.1935
rfemur -5.02057 15.3228 25.5535
rtibia 26.6801
rfoot -28.0627 -28.6231
rtoes -20.0793
lfemur -6.18831 -13.3145 -22.1086
ltibia 28.1266
lfoot -19.2853 21.5849
ltoes -18.2853
